%TF.GenerationSoftware,KiCad,Pcbnew,7.0.8*%
%TF.CreationDate,2024-02-12T15:09:04-05:00*%
%TF.ProjectId,wasabi(PCBlayout),77617361-6269-4285-9043-426c61796f75,rev?*%
%TF.SameCoordinates,Original*%
%TF.FileFunction,Soldermask,Bot*%
%TF.FilePolarity,Negative*%
%FSLAX46Y46*%
G04 Gerber Fmt 4.6, Leading zero omitted, Abs format (unit mm)*
G04 Created by KiCad (PCBNEW 7.0.8) date 2024-02-12 15:09:04*
%MOMM*%
%LPD*%
G01*
G04 APERTURE LIST*
G04 Aperture macros list*
%AMRoundRect*
0 Rectangle with rounded corners*
0 $1 Rounding radius*
0 $2 $3 $4 $5 $6 $7 $8 $9 X,Y pos of 4 corners*
0 Add a 4 corners polygon primitive as box body*
4,1,4,$2,$3,$4,$5,$6,$7,$8,$9,$2,$3,0*
0 Add four circle primitives for the rounded corners*
1,1,$1+$1,$2,$3*
1,1,$1+$1,$4,$5*
1,1,$1+$1,$6,$7*
1,1,$1+$1,$8,$9*
0 Add four rect primitives between the rounded corners*
20,1,$1+$1,$2,$3,$4,$5,0*
20,1,$1+$1,$4,$5,$6,$7,0*
20,1,$1+$1,$6,$7,$8,$9,0*
20,1,$1+$1,$8,$9,$2,$3,0*%
G04 Aperture macros list end*
%ADD10R,1.600000X1.600000*%
%ADD11C,1.600000*%
%ADD12C,2.200000*%
%ADD13R,2.200000X2.200000*%
%ADD14R,1.730000X2.030000*%
%ADD15O,1.730000X2.030000*%
%ADD16R,2.794000X2.794000*%
%ADD17C,2.794000*%
%ADD18C,2.754000*%
%ADD19RoundRect,0.102000X-1.275000X-1.275000X1.275000X-1.275000X1.275000X1.275000X-1.275000X1.275000X0*%
%ADD20C,1.712000*%
G04 APERTURE END LIST*
D10*
%TO.C,U2*%
X134360000Y-78740000D03*
D11*
X136900000Y-78740000D03*
X139440000Y-78740000D03*
X141980000Y-78740000D03*
X144520000Y-78740000D03*
X147060000Y-78740000D03*
X149600000Y-78740000D03*
X152140000Y-78740000D03*
X154680000Y-78740000D03*
X157220000Y-78740000D03*
X159760000Y-78740000D03*
X162300000Y-78740000D03*
X164840000Y-78740000D03*
X167380000Y-78740000D03*
X169920000Y-78740000D03*
X172460000Y-78740000D03*
X175000000Y-78740000D03*
X177540000Y-78740000D03*
X180080000Y-78740000D03*
X182620000Y-78740000D03*
X185160000Y-78740000D03*
X187700000Y-78740000D03*
X190240000Y-78740000D03*
X192780000Y-78740000D03*
X192780000Y-63500000D03*
X190240000Y-63500000D03*
X187700000Y-63500000D03*
X185160000Y-63500000D03*
X182620000Y-63500000D03*
X180080000Y-63500000D03*
X177540000Y-63500000D03*
X175000000Y-63500000D03*
X172460000Y-63500000D03*
X169920000Y-63500000D03*
X167380000Y-63500000D03*
X164840000Y-63500000D03*
X162300000Y-63500000D03*
X159760000Y-63500000D03*
X157220000Y-63500000D03*
X154680000Y-63500000D03*
X152140000Y-63500000D03*
X149600000Y-63500000D03*
X147060000Y-63500000D03*
X144520000Y-63500000D03*
X141980000Y-63500000D03*
X139440000Y-63500000D03*
X136900000Y-63500000D03*
X134360000Y-63500000D03*
%TD*%
D12*
%TO.C,H2*%
X164500000Y-97500000D03*
%TD*%
%TO.C,H1*%
X174500000Y-97500000D03*
%TD*%
D13*
%TO.C,J4*%
X135800000Y-57000000D03*
D12*
X138340000Y-57000000D03*
X140880000Y-57000000D03*
X143420000Y-57000000D03*
X145960000Y-57000000D03*
X148500000Y-57000000D03*
X151040000Y-57000000D03*
%TD*%
D13*
%TO.C,J1*%
X174950000Y-83960000D03*
D12*
X174950000Y-86500000D03*
X174950000Y-89040000D03*
X174950000Y-91580000D03*
%TD*%
D14*
%TO.C,J2*%
X183800000Y-54000000D03*
D15*
X186340000Y-54000000D03*
X188880000Y-54000000D03*
%TD*%
D13*
%TO.C,J5*%
X157800000Y-57000000D03*
D12*
X160340000Y-57000000D03*
X162880000Y-57000000D03*
X165420000Y-57000000D03*
X167960000Y-57000000D03*
X170500000Y-57000000D03*
X173040000Y-57000000D03*
X175580000Y-57000000D03*
%TD*%
D16*
%TO.C,U4*%
X199000000Y-70801000D03*
D17*
X199000000Y-75500000D03*
X199000000Y-80199000D03*
%TD*%
D18*
%TO.C,J3*%
X204500000Y-51294250D03*
D19*
X199500000Y-51294250D03*
D20*
X207500000Y-61294250D03*
X196500000Y-61294250D03*
%TD*%
M02*
