%TF.GenerationSoftware,KiCad,Pcbnew,7.0.8*%
%TF.CreationDate,2024-02-12T15:09:04-05:00*%
%TF.ProjectId,wasabi(PCBlayout),77617361-6269-4285-9043-426c61796f75,rev?*%
%TF.SameCoordinates,Original*%
%TF.FileFunction,Soldermask,Top*%
%TF.FilePolarity,Negative*%
%FSLAX46Y46*%
G04 Gerber Fmt 4.6, Leading zero omitted, Abs format (unit mm)*
G04 Created by KiCad (PCBNEW 7.0.8) date 2024-02-12 15:09:04*
%MOMM*%
%LPD*%
G01*
G04 APERTURE LIST*
G04 Aperture macros list*
%AMRoundRect*
0 Rectangle with rounded corners*
0 $1 Rounding radius*
0 $2 $3 $4 $5 $6 $7 $8 $9 X,Y pos of 4 corners*
0 Add a 4 corners polygon primitive as box body*
4,1,4,$2,$3,$4,$5,$6,$7,$8,$9,$2,$3,0*
0 Add four circle primitives for the rounded corners*
1,1,$1+$1,$2,$3*
1,1,$1+$1,$4,$5*
1,1,$1+$1,$6,$7*
1,1,$1+$1,$8,$9*
0 Add four rect primitives between the rounded corners*
20,1,$1+$1,$2,$3,$4,$5,0*
20,1,$1+$1,$4,$5,$6,$7,0*
20,1,$1+$1,$6,$7,$8,$9,0*
20,1,$1+$1,$8,$9,$2,$3,0*%
G04 Aperture macros list end*
%ADD10R,1.600000X1.600000*%
%ADD11C,1.600000*%
%ADD12C,2.200000*%
%ADD13RoundRect,0.237500X-0.237500X0.250000X-0.237500X-0.250000X0.237500X-0.250000X0.237500X0.250000X0*%
%ADD14R,1.397000X0.901700*%
%ADD15RoundRect,0.250000X-0.350000X-0.450000X0.350000X-0.450000X0.350000X0.450000X-0.350000X0.450000X0*%
%ADD16R,2.200000X2.200000*%
%ADD17R,0.711200X0.762000*%
%ADD18RoundRect,0.250000X0.400000X0.625000X-0.400000X0.625000X-0.400000X-0.625000X0.400000X-0.625000X0*%
%ADD19RoundRect,0.250000X0.300000X0.300000X-0.300000X0.300000X-0.300000X-0.300000X0.300000X-0.300000X0*%
%ADD20R,0.762000X0.711200*%
%ADD21RoundRect,0.237500X0.237500X-0.250000X0.237500X0.250000X-0.237500X0.250000X-0.237500X-0.250000X0*%
%ADD22RoundRect,0.155000X-0.212500X-0.155000X0.212500X-0.155000X0.212500X0.155000X-0.212500X0.155000X0*%
%ADD23RoundRect,0.102000X-0.350000X1.000000X-0.350000X-1.000000X0.350000X-1.000000X0.350000X1.000000X0*%
%ADD24RoundRect,0.102000X4.800000X3.000000X-4.800000X3.000000X-4.800000X-3.000000X4.800000X-3.000000X0*%
%ADD25RoundRect,0.102000X-1.525000X-1.450000X1.525000X-1.450000X1.525000X1.450000X-1.525000X1.450000X0*%
%ADD26R,1.730000X2.030000*%
%ADD27O,1.730000X2.030000*%
%ADD28R,0.939800X2.794000*%
%ADD29R,5.613400X6.604000*%
%ADD30RoundRect,0.155000X0.155000X-0.212500X0.155000X0.212500X-0.155000X0.212500X-0.155000X-0.212500X0*%
%ADD31RoundRect,0.237500X-0.237500X0.300000X-0.237500X-0.300000X0.237500X-0.300000X0.237500X0.300000X0*%
%ADD32R,0.482600X1.257300*%
%ADD33R,2.794000X2.794000*%
%ADD34C,2.794000*%
%ADD35C,2.754000*%
%ADD36RoundRect,0.102000X-1.275000X-1.275000X1.275000X-1.275000X1.275000X1.275000X-1.275000X1.275000X0*%
%ADD37C,1.712000*%
G04 APERTURE END LIST*
D10*
%TO.C,U2*%
X134360000Y-78740000D03*
D11*
X136900000Y-78740000D03*
X139440000Y-78740000D03*
X141980000Y-78740000D03*
X144520000Y-78740000D03*
X147060000Y-78740000D03*
X149600000Y-78740000D03*
X152140000Y-78740000D03*
X154680000Y-78740000D03*
X157220000Y-78740000D03*
X159760000Y-78740000D03*
X162300000Y-78740000D03*
X164840000Y-78740000D03*
X167380000Y-78740000D03*
X169920000Y-78740000D03*
X172460000Y-78740000D03*
X175000000Y-78740000D03*
X177540000Y-78740000D03*
X180080000Y-78740000D03*
X182620000Y-78740000D03*
X185160000Y-78740000D03*
X187700000Y-78740000D03*
X190240000Y-78740000D03*
X192780000Y-78740000D03*
X192780000Y-63500000D03*
X190240000Y-63500000D03*
X187700000Y-63500000D03*
X185160000Y-63500000D03*
X182620000Y-63500000D03*
X180080000Y-63500000D03*
X177540000Y-63500000D03*
X175000000Y-63500000D03*
X172460000Y-63500000D03*
X169920000Y-63500000D03*
X167380000Y-63500000D03*
X164840000Y-63500000D03*
X162300000Y-63500000D03*
X159760000Y-63500000D03*
X157220000Y-63500000D03*
X154680000Y-63500000D03*
X152140000Y-63500000D03*
X149600000Y-63500000D03*
X147060000Y-63500000D03*
X144520000Y-63500000D03*
X141980000Y-63500000D03*
X139440000Y-63500000D03*
X136900000Y-63500000D03*
X134360000Y-63500000D03*
%TD*%
D12*
%TO.C,H2*%
X164500000Y-97500000D03*
%TD*%
%TO.C,H1*%
X174500000Y-97500000D03*
%TD*%
D13*
%TO.C,R9*%
X176274700Y-49500000D03*
X176274700Y-51325000D03*
%TD*%
D14*
%TO.C,F1*%
X205182000Y-72637900D03*
X205182000Y-74428600D03*
%TD*%
D15*
%TO.C,R8*%
X188896000Y-84933100D03*
X190896000Y-84933100D03*
%TD*%
D16*
%TO.C,J4*%
X135800000Y-57000000D03*
D12*
X138340000Y-57000000D03*
X140880000Y-57000000D03*
X143420000Y-57000000D03*
X145960000Y-57000000D03*
X148500000Y-57000000D03*
X151040000Y-57000000D03*
%TD*%
D17*
%TO.C,LED2*%
X207682000Y-74137900D03*
X207682000Y-75687300D03*
%TD*%
D18*
%TO.C,R2*%
X208182000Y-79704800D03*
X205082000Y-79704800D03*
%TD*%
D19*
%TO.C,D1*%
X182850000Y-83500000D03*
X180050000Y-83500000D03*
%TD*%
%TO.C,D3*%
X182850000Y-89500000D03*
X180050000Y-89500000D03*
%TD*%
D20*
%TO.C,LED7*%
X151725300Y-47500000D03*
X153274700Y-47500000D03*
%TD*%
%TO.C,LED5*%
X139725300Y-47500000D03*
X141274700Y-47500000D03*
%TD*%
D13*
%TO.C,R5*%
X141274700Y-49675000D03*
X141274700Y-51500000D03*
%TD*%
D20*
%TO.C,LED6*%
X166774700Y-47500000D03*
X165225300Y-47500000D03*
%TD*%
D21*
%TO.C,R1*%
X132500000Y-55912500D03*
X132500000Y-54087500D03*
%TD*%
D22*
%TO.C,C1*%
X184950000Y-85000000D03*
X186085000Y-85000000D03*
%TD*%
D20*
%TO.C,LED3*%
X159225300Y-47500000D03*
X160774700Y-47500000D03*
%TD*%
D17*
%TO.C,LED1*%
X132500000Y-60000000D03*
X132500000Y-58450600D03*
%TD*%
D16*
%TO.C,J1*%
X174950000Y-83960000D03*
D12*
X174950000Y-86500000D03*
X174950000Y-89040000D03*
X174950000Y-91580000D03*
%TD*%
D23*
%TO.C,IC1*%
X157930000Y-82500000D03*
X156660000Y-82500000D03*
X155390000Y-82500000D03*
X154120000Y-82500000D03*
X152850000Y-82500000D03*
X151580000Y-82500000D03*
X150310000Y-82500000D03*
X149040000Y-82500000D03*
X147770000Y-82500000D03*
X146500000Y-82500000D03*
X146500000Y-95900000D03*
X147770000Y-95900000D03*
X149040000Y-95900000D03*
X150310000Y-95900000D03*
X151580000Y-95900000D03*
X152850000Y-95900000D03*
X154120000Y-95900000D03*
X155390000Y-95900000D03*
X156660000Y-95900000D03*
X157930000Y-95900000D03*
D24*
X152215000Y-89200000D03*
D25*
X158515000Y-89200000D03*
X145915000Y-89200000D03*
%TD*%
D22*
%TO.C,C7*%
X168707200Y-51500000D03*
X169842200Y-51500000D03*
%TD*%
%TO.C,C6*%
X158139700Y-52000000D03*
X159274700Y-52000000D03*
%TD*%
%TO.C,C3*%
X136639700Y-51500000D03*
X137774700Y-51500000D03*
%TD*%
D20*
%TO.C,LED8*%
X190896000Y-86933100D03*
X189346600Y-86933100D03*
%TD*%
D26*
%TO.C,J2*%
X183800000Y-54000000D03*
D27*
X186340000Y-54000000D03*
X188880000Y-54000000D03*
%TD*%
D28*
%TO.C,U5*%
X201468000Y-84199000D03*
X196896000Y-84199000D03*
D29*
X199182000Y-92504800D03*
%TD*%
D30*
%TO.C,C9*%
X141000000Y-94567500D03*
X141000000Y-93432500D03*
%TD*%
D13*
%TO.C,R6*%
X165774700Y-49500000D03*
X165774700Y-51325000D03*
%TD*%
%TO.C,R10*%
X148774700Y-49500000D03*
X148774700Y-51325000D03*
%TD*%
%TO.C,R7*%
X151774700Y-49500000D03*
X151774700Y-51325000D03*
%TD*%
%TO.C,R4*%
X172774700Y-49500000D03*
X172774700Y-51325000D03*
%TD*%
D19*
%TO.C,D2*%
X182850000Y-86500000D03*
X180050000Y-86500000D03*
%TD*%
%TO.C,D5*%
X169950000Y-83500000D03*
X167150000Y-83500000D03*
%TD*%
D31*
%TO.C,C5*%
X204578000Y-87208500D03*
X204578000Y-88933500D03*
%TD*%
D32*
%TO.C,U1*%
X139055000Y-73622550D03*
X140325000Y-73622550D03*
X141595000Y-73622550D03*
X142865000Y-73622550D03*
X144135000Y-73622550D03*
X145405000Y-73622550D03*
X146675000Y-73622550D03*
X147945000Y-73622550D03*
X147945000Y-68377450D03*
X146675000Y-68377450D03*
X145405000Y-68377450D03*
X144135000Y-68377450D03*
X142865000Y-68377450D03*
X141595000Y-68377450D03*
X140325000Y-68377450D03*
X139055000Y-68377450D03*
%TD*%
D30*
%TO.C,C8*%
X193000000Y-86067500D03*
X193000000Y-84932500D03*
%TD*%
D22*
%TO.C,C4*%
X144139700Y-52000000D03*
X145274700Y-52000000D03*
%TD*%
D19*
%TO.C,D8*%
X169950000Y-92500000D03*
X167150000Y-92500000D03*
%TD*%
%TO.C,D7*%
X169850000Y-89500000D03*
X167050000Y-89500000D03*
%TD*%
D16*
%TO.C,J5*%
X157800000Y-57000000D03*
D12*
X160340000Y-57000000D03*
X162880000Y-57000000D03*
X165420000Y-57000000D03*
X167960000Y-57000000D03*
X170500000Y-57000000D03*
X173040000Y-57000000D03*
X175580000Y-57000000D03*
%TD*%
D32*
%TO.C,U3*%
X151380000Y-68254900D03*
X152650000Y-68254900D03*
X153920000Y-68254900D03*
X155190000Y-68254900D03*
X156460000Y-68254900D03*
X157730000Y-68254900D03*
X159000000Y-68254900D03*
X160270000Y-68254900D03*
X160270000Y-73500000D03*
X159000000Y-73500000D03*
X157730000Y-73500000D03*
X156460000Y-73500000D03*
X155190000Y-73500000D03*
X153920000Y-73500000D03*
X152650000Y-73500000D03*
X151380000Y-73500000D03*
%TD*%
D20*
%TO.C,LED10*%
X146225300Y-47500000D03*
X147774700Y-47500000D03*
%TD*%
%TO.C,LED4*%
X169500000Y-47500000D03*
X171049400Y-47500000D03*
%TD*%
%TO.C,LED9*%
X174725300Y-47500000D03*
X176274700Y-47500000D03*
%TD*%
D19*
%TO.C,D6*%
X169950000Y-86500000D03*
X167150000Y-86500000D03*
%TD*%
%TO.C,D4*%
X182850000Y-92500000D03*
X180050000Y-92500000D03*
%TD*%
D13*
%TO.C,R3*%
X162774700Y-49587500D03*
X162774700Y-51412500D03*
%TD*%
D22*
%TO.C,C2*%
X184950000Y-91000000D03*
X186085000Y-91000000D03*
%TD*%
D33*
%TO.C,U4*%
X199000000Y-70801000D03*
D34*
X199000000Y-75500000D03*
X199000000Y-80199000D03*
%TD*%
D35*
%TO.C,J3*%
X204500000Y-51294250D03*
D36*
X199500000Y-51294250D03*
D37*
X207500000Y-61294250D03*
X196500000Y-61294250D03*
%TD*%
M02*
