M48
; DRILL file {KiCad 7.0.8} date 2024 February 12, Monday 15:08:02
; FORMAT={-:-/ absolute / metric / decimal}
; #@! TF.CreationDate,2024-02-12T15:08:02-05:00
; #@! TF.GenerationSoftware,Kicad,Pcbnew,7.0.8
; #@! TF.FileFunction,Plated,1,2,PTH
FMAT,2
METRIC
; #@! TA.AperFunction,Plated,PTH,ViaDrill
T1C0.400
; #@! TA.AperFunction,Plated,PTH,ComponentDrill
T2C1.000
; #@! TA.AperFunction,Plated,PTH,ComponentDrill
T3C1.020
; #@! TA.AperFunction,Plated,PTH,ComponentDrill
T4C1.100
; #@! TA.AperFunction,Plated,PTH,ComponentDrill
T5C1.700
; #@! TA.AperFunction,Plated,PTH,ComponentDrill
T6C2.286
%
G90
G05
T1
X137.5Y-68.5
X137.5Y-73.5
X138.5Y-85.5
X139.0Y-100.5
X139.5Y-50.5
X141.0Y-92.0
X142.5Y-53.0
X142.5Y-96.5
X145.5Y-76.0
X147.0Y-52.0
X150.5Y-53.0
X152.5Y-75.5
X155.0Y-52.0
X160.5Y-50.5
X161.5Y-75.5
X162.5Y-85.549
X162.5Y-93.0
X164.5Y-88.5
X165.5Y-82.0
X167.5Y-50.0
X171.0Y-49.5
X171.0Y-91.0
X174.5Y-51.0
X181.5Y-97.0
T2
X196.5Y-61.294
X207.5Y-61.294
T3
X183.8Y-54.0
X186.34Y-54.0
X188.88Y-54.0
T4
X134.36Y-63.5
X134.36Y-78.74
X135.8Y-57.0
X136.9Y-63.5
X136.9Y-78.74
X138.34Y-57.0
X139.44Y-63.5
X139.44Y-78.74
X140.88Y-57.0
X141.98Y-63.5
X141.98Y-78.74
X143.42Y-57.0
X144.52Y-63.5
X144.52Y-78.74
X145.96Y-57.0
X147.06Y-63.5
X147.06Y-78.74
X148.5Y-57.0
X149.6Y-63.5
X149.6Y-78.74
X151.04Y-57.0
X152.14Y-63.5
X152.14Y-78.74
X154.68Y-63.5
X154.68Y-78.74
X157.22Y-63.5
X157.22Y-78.74
X157.8Y-57.0
X159.76Y-63.5
X159.76Y-78.74
X160.34Y-57.0
X162.3Y-63.5
X162.3Y-78.74
X162.88Y-57.0
X164.84Y-63.5
X164.84Y-78.74
X165.42Y-57.0
X167.38Y-63.5
X167.38Y-78.74
X167.96Y-57.0
X169.92Y-63.5
X169.92Y-78.74
X170.5Y-57.0
X172.46Y-63.5
X172.46Y-78.74
X173.04Y-57.0
X174.95Y-83.96
X174.95Y-86.5
X174.95Y-89.04
X174.95Y-91.58
X175.0Y-63.5
X175.0Y-78.74
X175.58Y-57.0
X177.54Y-63.5
X177.54Y-78.74
X180.08Y-63.5
X180.08Y-78.74
X182.62Y-63.5
X182.62Y-78.74
X185.16Y-63.5
X185.16Y-78.74
X187.7Y-63.5
X187.7Y-78.74
X190.24Y-63.5
X190.24Y-78.74
X192.78Y-63.5
X192.78Y-78.74
T5
X199.5Y-51.294
X204.5Y-51.294
T6
X199.0Y-70.801
X199.0Y-75.5
X199.0Y-80.199
T0
M30
